<svg width="578" height="764" viewBox="0 0 578 764" fill="none" xmlns="http://www.w3.org/2000/svg">
<circle cx="234.301" cy="234.301" r="233.901" transform="matrix(1 0 0 -1 109.152 763.641)" stroke="#0DA19A" stroke-width="0.801256"/>
<circle cx="188.252" cy="188.252" r="187.851" transform="matrix(1 0 0 -1 155.844 716.947)" stroke="#B662A2" stroke-width="0.801256"/>
<circle cx="142.22" cy="142.22" r="141.819" transform="matrix(1 0 0 -1 201.398 671.393)" stroke="#F49918" stroke-width="0.801256"/>
<path d="M86.3701 703.16H-130.011C-145.107 703.16 -157.344 690.923 -157.344 675.828V457.169C-157.344 442.073 -145.107 429.836 -130.011 429.836H86.3701C101.465 429.836 113.703 442.073 113.703 457.169V675.828C113.703 690.923 101.465 703.16 86.3701 703.16Z" fill="#B662A2" fill-opacity="0.2"/>
<path d="M-1.31954 0.490158C70.383 0.490158 128.509 58.6165 128.509 130.319C128.509 202.022 70.383 260.148 -1.31954 260.148C-73.0221 260.148 -131.148 202.022 -131.148 130.319C-131.148 58.6165 -73.0221 0.490158 -1.31954 0.490158Z" fill="#0BA19A" fill-opacity="0.2"/>
</svg>
