<svg width="448" height="508" viewBox="0 0 448 508" fill="none" xmlns="http://www.w3.org/2000/svg">
<circle cx="140.301" cy="303.48" r="117.02" transform="rotate(180 140.301 303.48)" stroke="#0DA19A"/>
<circle cx="139.976" cy="303.158" r="93.9224" transform="rotate(180 139.976 303.158)" stroke="#B662A2"/>
<circle cx="140.213" cy="303.397" r="70.8338" transform="rotate(180 140.213 303.397)" stroke="#F49918"/>
<path d="M313.118 507.695L432.27 507.695C440.582 507.695 447.32 500.957 447.32 492.645L447.32 372.238C447.32 363.926 440.582 357.187 432.27 357.187L313.118 357.188C304.805 357.188 298.067 363.926 298.067 372.238L298.067 492.645C298.067 500.957 304.805 507.695 313.118 507.695Z" fill="#B662A2" fill-opacity="0.2"/>
<path d="M318.642 0.766128C279.158 0.766132 247.15 32.7738 247.15 72.2573C247.15 111.741 279.158 143.749 318.642 143.749C358.125 143.749 390.133 111.741 390.133 72.2573C390.133 32.7738 358.125 0.766125 318.642 0.766128Z" fill="#0BA19A" fill-opacity="0.2"/>
</svg>
