<svg width="321" height="408" viewBox="0 0 321 408" fill="none" xmlns="http://www.w3.org/2000/svg">
<circle cx="29.0197" cy="129.232" r="128.799" transform="rotate(-90 29.0197 129.232)" stroke="#0DA19A" stroke-width="0.441217"/>
<circle cx="29.3732" cy="128.879" r="103.442" transform="rotate(-90 29.3732 128.879)" stroke="#B662A2" stroke-width="0.441217"/>
<circle cx="29.1111" cy="129.143" r="78.0936" transform="rotate(-90 29.1111 129.143)" stroke="#F49918" stroke-width="0.441217"/>
<path d="M-66.6953 273.551L-66.6953 392.703C-66.6953 401.015 -59.9568 407.753 -51.6445 407.753L68.7617 407.753C77.074 407.753 83.8125 401.015 83.8125 392.703L83.8125 273.551C83.8125 265.238 77.074 258.5 68.7617 258.5L-51.6445 258.5C-59.9569 258.5 -66.6953 265.238 -66.6953 273.551Z" fill="#B662A2" fill-opacity="0.2"/>
<path d="M320.232 319.084C320.232 279.601 288.225 247.593 248.741 247.593C209.258 247.593 177.25 279.601 177.25 319.084C177.25 358.568 209.258 390.576 248.741 390.576C288.225 390.576 320.232 358.568 320.232 319.084Z" fill="#0BA19A" fill-opacity="0.2"/>
</svg>
