<svg width="355" height="477" viewBox="0 0 355 477" fill="none" xmlns="http://www.w3.org/2000/svg">
<circle cx="368.602" cy="185.183" r="128.799" stroke="#0DA19A" stroke-width="0.441217"/>
<circle cx="368.955" cy="185.537" r="103.442" stroke="#B662A2" stroke-width="0.441217"/>
<circle cx="368.693" cy="185.274" r="78.0936" stroke="#F49918" stroke-width="0.441217"/>
<path d="M239.311 0H154.689C148.786 0 144 4.79055 144 10.7V96.3C144 102.209 148.786 107 154.689 107H239.311C245.214 107 250 102.209 250 96.3V10.7C250 4.79055 245.214 0 239.311 0Z" fill="#B662A2" fill-opacity="0.2"/>
<path d="M103 367C159.885 367 206 321.109 206 264.5C206 207.891 159.885 162 103 162C46.1147 162 0 207.891 0 264.5C0 321.109 46.1147 367 103 367Z" fill="#0BA19A" fill-opacity="0.2"/>
</svg>
