<svg width="11" height="21" viewBox="0 0 11 21" fill="none" xmlns="http://www.w3.org/2000/svg">
<path d="M10.6612 1.01831V4.07186H8.84531C8.60498 4.0414 8.36092 4.0628 8.12956 4.13461C7.89821 4.20643 7.68492 4.32699 7.50408 4.48817C7.24695 4.85156 7.1244 5.29316 7.15747 5.73709V7.92224H10.5482L10.098 11.345H7.15747V20.1233H3.61791V11.345H0.667969V7.92224H3.61791V5.3999C3.58056 4.79114 3.66807 4.18118 3.87507 3.60748C4.08207 3.03377 4.40419 2.50845 4.82163 2.06379C5.24844 1.66129 5.75198 1.34893 6.30219 1.14535C6.8524 0.941776 7.43799 0.851158 8.024 0.878913C8.90524 0.864588 9.78642 0.911163 10.6612 1.01831Z" fill="white"/>
</svg>
