<svg width="498" height="677" viewBox="0 0 498 677" fill="none" xmlns="http://www.w3.org/2000/svg">
<circle cx="207.293" cy="207.293" r="206.938" transform="matrix(1 0 0 -1 82.7773 676.165)" stroke="#0DA19A" stroke-width="0.708893"/>
<circle cx="166.552" cy="166.552" r="166.197" transform="matrix(1 0 0 -1 124.086 634.854)" stroke="#B662A2" stroke-width="0.708893"/>
<circle cx="125.826" cy="125.826" r="125.471" transform="matrix(1 0 0 -1 164.391 594.552)" stroke="#F49918" stroke-width="0.708893"/>
<path d="M62.6204 622.656H-128.818C-142.173 622.656 -153 611.83 -153 598.475V405.021C-153 391.665 -142.173 380.839 -128.818 380.839H62.6204C75.9756 380.839 86.8021 391.665 86.8021 405.021V598.475C86.8021 611.83 75.9756 622.656 62.6204 622.656Z" fill="#B662A2" fill-opacity="0.2"/>
<path d="M-14.961 0.984526C48.4762 0.984526 99.9022 52.4105 99.9022 115.848C99.9022 179.285 48.4762 230.711 -14.961 230.711C-78.3982 230.711 -129.824 179.285 -129.824 115.848C-129.824 52.4105 -78.3982 0.984526 -14.961 0.984526Z" fill="#0BA19A" fill-opacity="0.2"/>
</svg>
