<svg width="496" height="650" viewBox="0 0 496 650" fill="none" xmlns="http://www.w3.org/2000/svg">
<circle cx="528.932" cy="284.299" r="283.799" stroke="#0DA19A"/>
<circle cx="529.708" cy="285.08" r="227.923" stroke="#B662A2"/>
<circle cx="529.13" cy="284.499" r="172.068" stroke="#F49918"/>
<path d="M309.376 650H134.136C121.91 650 112 640.074 112 627.83V450.473C112 438.23 121.91 428.304 134.136 428.304H309.376C321.601 428.304 331.511 438.23 331.511 450.473V627.83C331.511 640.074 321.601 650 309.376 650Z" fill="#B662A2" fill-opacity="0.2"/>
<path d="M127.581 59.5245C198.042 59.5245 255.161 116.732 255.161 187.301C255.161 257.87 198.042 315.078 127.581 315.078C57.1198 315.078 0 257.87 0 187.301C0 116.732 57.1198 59.5245 127.581 59.5245Z" fill="#0BA19A" fill-opacity="0.2"/>
</svg>
