<svg width="582" height="980" viewBox="0 0 582 980" fill="none" xmlns="http://www.w3.org/2000/svg">
<circle cx="292.418" cy="292.418" r="291.918" transform="matrix(0.999293 -0.0376075 -0.0376075 -0.999293 368.227 967.271)" stroke="#0DA19A"/>
<circle cx="234.946" cy="234.946" r="234.446" transform="matrix(0.999293 -0.0376075 -0.0376075 -0.999293 424.27 906.846)" stroke="#B662A2"/>
<circle cx="177.496" cy="177.496" r="176.996" transform="matrix(0.999293 -0.0376075 -0.0376075 -0.999293 478.941 847.895)" stroke="#F49918"/>
<path d="M336.981 892.911L67.1191 903.067C48.2929 903.776 32.4569 889.088 31.7484 870.262L21.4855 597.56C20.7769 578.734 35.4642 562.898 54.2904 562.189L324.152 552.033C342.978 551.325 358.814 566.012 359.523 584.838L369.786 857.541C370.494 876.367 355.807 892.203 336.981 892.911Z" fill="#B662A2" fill-opacity="0.2"/>
<path d="M194.632 20.6869C284.057 17.3215 359.278 87.0861 362.643 176.51C366.008 265.935 296.244 341.156 206.819 344.521C117.395 347.887 42.1741 278.122 38.8087 188.698C35.4433 99.2733 105.208 24.0523 194.632 20.6869Z" fill="#0BA19A" fill-opacity="0.2"/>
</svg>
