<svg width="268" height="472" viewBox="0 0 268 472" fill="none" xmlns="http://www.w3.org/2000/svg">
<path d="M450.743 315.247C447.845 238.243 383.071 178.168 306.067 181.066C229.062 183.964 168.987 248.737 171.885 325.741C174.783 402.745 239.557 462.82 316.561 459.922C393.566 457.024 453.641 392.251 450.743 315.247Z" stroke="#0DA19A" stroke-width="0.477968"/>
<path d="M423.649 315.88C421.322 254.036 369.3 205.789 307.456 208.116C245.612 210.444 197.364 262.465 199.691 324.308C202.019 386.152 254.04 434.4 315.885 432.072C377.729 429.745 425.977 377.724 423.649 315.88Z" stroke="#B662A2" stroke-width="0.477968"/>
<path d="M395.939 317.211C394.181 270.522 354.908 234.098 308.218 235.855C261.529 237.612 225.104 276.885 226.861 323.574C228.618 370.264 267.892 406.688 314.581 404.931C361.271 403.174 397.696 363.901 395.939 317.211Z" stroke="#F49918" stroke-width="0.477968"/>
<path d="M161.963 429.875L32.9766 434.73C23.9782 435.068 16.4091 428.048 16.0704 419.05L11.165 288.707C10.8264 279.709 17.8465 272.14 26.8448 271.801L155.831 266.947C164.829 266.609 172.398 273.629 172.737 282.627L177.642 412.969C177.981 421.968 170.961 429.537 161.963 429.875Z" fill="#B662A2" fill-opacity="0.2"/>
<path d="M184.049 63.2141C219.422 61.8829 249.177 89.4792 250.508 124.852C251.839 160.225 224.243 189.98 188.869 191.311C153.496 192.643 123.741 165.046 122.41 129.673C121.079 94.3 148.675 64.5453 184.049 63.2141Z" fill="#0BA19A" fill-opacity="0.2"/>
</svg>
