<svg width="527" height="650" viewBox="0 0 527 650" fill="none" xmlns="http://www.w3.org/2000/svg">
<circle cx="284.299" cy="284.299" r="283.799" transform="matrix(1 0 0 -1 244.633 650)" stroke="#0DA19A"/>
<circle cx="228.423" cy="228.423" r="227.923" transform="matrix(1 0 0 -1 301.289 593.343)" stroke="#B662A2"/>
<circle cx="172.568" cy="172.568" r="172.068" transform="matrix(1 0 0 -1 356.562 538.069)" stroke="#F49918"/>
<path d="M309.376 0L134.136 0C121.91 0 112 9.92567 112 22.1696V199.527C112 211.77 121.91 221.696 134.136 221.696H309.376C321.601 221.696 331.511 211.77 331.511 199.527V22.1696C331.511 9.92567 321.601 0 309.376 0Z" fill="#B662A2" fill-opacity="0.2"/>
<path d="M127.581 590.476C198.042 590.476 255.161 533.268 255.161 462.699C255.161 392.13 198.042 334.922 127.581 334.922C57.1198 334.922 0 392.13 0 462.699C0 533.268 57.1198 590.476 127.581 590.476Z" fill="#0BA19A" fill-opacity="0.2"/>
</svg>
