<svg width="165" height="508" viewBox="0 0 165 508" fill="none" xmlns="http://www.w3.org/2000/svg">
<path d="M30.1175 507.695L149.27 507.695C157.582 507.695 164.32 500.957 164.32 492.645L164.32 372.238C164.32 363.926 157.582 357.187 149.27 357.187L30.1175 357.188C21.8052 357.188 15.0667 363.926 15.0667 372.238L15.0667 492.645C15.0668 500.957 21.8052 507.695 30.1175 507.695Z" fill="#B662A2" fill-opacity="0.2"/>
<path d="M35.6416 0.766128C-3.84191 0.766132 -35.8496 32.7738 -35.8496 72.2573C-35.8496 111.741 -3.8419 143.749 35.6416 143.749C75.1251 143.749 107.133 111.741 107.133 72.2573C107.133 32.7738 75.1251 0.766125 35.6416 0.766128Z" fill="#0BA19A" fill-opacity="0.2"/>
</svg>
