<svg width="355" height="477" viewBox="0 0 355 477" fill="none" xmlns="http://www.w3.org/2000/svg">
<circle cx="368.602" cy="185.199" r="128.799" stroke="#0DA19A" stroke-width="0.441217"/>
<circle cx="368.955" cy="185.553" r="103.442" stroke="#B662A2" stroke-width="0.441217"/>
<circle cx="368.693" cy="185.291" r="78.0936" stroke="#F49918" stroke-width="0.441217"/>
<path d="M239.311 0.015625H154.689C148.786 0.015625 144 4.80618 144 10.7156V96.3156C144 102.225 148.786 107.016 154.689 107.016H239.311C245.214 107.016 250 102.225 250 96.3156V10.7156C250 4.80618 245.214 0.015625 239.311 0.015625Z" fill="#B662A2" fill-opacity="0.2"/>
<path d="M103 367.016C159.885 367.016 206 321.125 206 264.516C206 207.906 159.885 162.016 103 162.016C46.1147 162.016 0 207.906 0 264.516C0 321.125 46.1147 367.016 103 367.016Z" fill="#0BA19A" fill-opacity="0.2"/>
</svg>
