<svg width="341" height="508" viewBox="0 0 341 508" fill="none" xmlns="http://www.w3.org/2000/svg">
<circle cx="117.52" cy="117.52" r="117.02" transform="matrix(-1 -8.74228e-08 -8.74228e-08 1 257.82 87)" stroke="#0DA19A"/>
<circle cx="94.4224" cy="94.4224" r="93.9224" transform="matrix(-1 -8.74228e-08 -8.74228e-08 1 234.398 110.419)" stroke="#B662A2"/>
<circle cx="71.3338" cy="71.3338" r="70.8338" transform="matrix(-1 -8.74228e-08 -8.74228e-08 1 211.547 133.269)" stroke="#F49918"/>
<path d="M313.118 0.304676L432.27 0.304686C440.582 0.304687 447.32 7.04315 447.32 15.3555L447.32 135.762C447.32 144.074 440.582 150.813 432.27 150.813L313.118 150.812C304.805 150.812 298.067 144.074 298.067 135.762L298.067 15.3555C298.067 7.04314 304.805 0.304675 313.118 0.304676Z" fill="#B662A2" fill-opacity="0.2"/>
<path d="M318.642 507.234C279.158 507.234 247.15 475.226 247.15 435.743C247.15 396.259 279.158 364.251 318.642 364.251C358.125 364.251 390.133 396.259 390.133 435.743C390.133 475.226 358.125 507.234 318.642 507.234Z" fill="#0BA19A" fill-opacity="0.2"/>
</svg>
