<svg width="252" height="284" viewBox="0 0 252 284" fill="none" xmlns="http://www.w3.org/2000/svg">
<circle cx="124.125" cy="124.125" r="123.906" transform="matrix(1 0 0 -1 106.852 283.79)" stroke="#0DA19A" stroke-width="0.436599"/>
<circle cx="99.7293" cy="99.7293" r="99.511" transform="matrix(1 0 0 -1 131.586 259.053)" stroke="#B662A2" stroke-width="0.436599"/>
<circle cx="75.343" cy="75.343" r="75.1247" transform="matrix(1 0 0 -1 155.719 234.921)" stroke="#F49918" stroke-width="0.436599"/>
<path d="M135.119 0L58.6097 0C53.2722 0 48.9453 4.33354 48.9453 9.67924V87.1132C48.9453 92.4589 53.2722 96.7924 58.6097 96.7924H135.119C140.457 96.7924 144.784 92.4589 144.784 87.1132V9.67924C144.784 4.33354 140.457 0 135.119 0Z" fill="#B662A2" fill-opacity="0.2"/>
<path d="M55.7485 257.802C86.5117 257.802 111.45 232.825 111.45 202.014C111.45 171.204 86.5117 146.227 55.7485 146.227C24.9854 146.227 0.046875 171.204 0.046875 202.014C0.046875 232.825 24.9854 257.802 55.7485 257.802Z" fill="#0BA19A" fill-opacity="0.2"/>
</svg>
