<svg width="20" height="20" viewBox="0 0 20 20" fill="none" xmlns="http://www.w3.org/2000/svg">
<path d="M10.4802 2.60783C13.0176 2.60783 13.3171 2.61725 14.3193 2.66246C14.9214 2.66993 15.5178 2.7808 16.0825 2.99023C16.4951 3.14244 16.8684 3.3851 17.175 3.70041C17.4906 4.00682 17.7333 4.3802 17.8852 4.79298C18.0946 5.35761 18.2055 5.954 18.213 6.55616C18.2582 7.55832 18.2676 7.85783 18.2676 10.3952C18.2676 12.9326 18.2582 13.2322 18.213 14.2343C18.2055 14.8365 18.0946 15.4329 17.8852 15.9975C17.7273 16.4072 17.4853 16.7793 17.1748 17.0898C16.8643 17.4003 16.4922 17.6423 16.0825 17.8002C15.5178 18.0097 14.9214 18.1205 14.3193 18.128C13.3171 18.1732 13.0176 18.1826 10.4802 18.1826C7.94279 18.1826 7.64328 18.1732 6.64113 18.128C6.03896 18.1205 5.44256 18.0097 4.87794 17.8002C4.46533 17.648 4.09202 17.4053 3.78537 17.0901C3.46986 16.7836 3.22717 16.4102 3.07519 15.9975C2.86576 15.4329 2.75489 14.8365 2.74742 14.2343C2.70221 13.2322 2.69279 12.9326 2.69279 10.3952C2.69279 7.85783 2.70221 7.55832 2.74742 6.55616C2.75489 5.954 2.86576 5.3576 3.07519 4.79298C3.2274 4.38034 3.47006 4.00702 3.78537 3.70041C4.09182 3.3849 4.46519 3.14221 4.87794 2.99023C5.44256 2.7808 6.03896 2.66993 6.64113 2.66246C7.64328 2.61725 7.95033 2.60783 10.4802 2.60783ZM10.4802 0.895508C7.89947 0.895508 7.57358 0.90681 6.56389 0.95202C5.77582 0.96814 4.99619 1.11782 4.25819 1.3947C3.62367 1.63312 3.04892 2.00729 2.57412 2.49104C2.0906 2.96529 1.71644 3.53939 1.47778 4.17323C1.20154 4.91135 1.0525 5.69097 1.03698 6.47893C0.991771 7.48862 0.980469 7.81451 0.980469 10.3952C0.980469 12.976 0.991771 13.2981 1.03698 14.3115C1.0531 15.0996 1.20278 15.8792 1.47966 16.6173C1.71832 17.2511 2.09248 17.8252 2.576 18.2994C3.05033 18.7829 3.6244 19.157 4.25819 19.3958C4.99631 19.672 5.77593 19.8211 6.56389 19.8366C7.57735 19.8837 7.90135 19.8931 10.4802 19.8931C13.059 19.8931 13.3831 19.8818 14.3965 19.8366C15.1845 19.8211 15.9641 19.672 16.7022 19.3958C17.3337 19.1519 17.9072 18.7788 18.386 18.3003C18.8648 17.8218 19.2383 17.2485 19.4826 16.6173C19.7589 15.8791 19.9079 15.0995 19.9234 14.3115C19.9705 13.2981 19.9799 12.9741 19.9799 10.3952C19.9799 7.81639 19.9686 7.49239 19.9234 6.47893C19.9079 5.69097 19.7589 4.91135 19.4826 4.17323C19.2442 3.53871 18.87 2.96395 18.3863 2.48916C17.9118 2.00641 17.3377 1.63292 16.7041 1.3947C15.9654 1.11786 15.1852 0.968182 14.3965 0.95202C13.3831 0.90681 13.0609 0.895508 10.4802 0.895508Z" fill="white"/>
<path d="M10.4804 5.51611C9.51549 5.51611 8.5722 5.80225 7.76987 6.33835C6.96754 6.87445 6.34219 7.63644 5.97292 8.52795C5.60365 9.41945 5.50703 10.4004 5.69528 11.3468C5.88354 12.2933 6.34822 13.1626 7.03054 13.8449C7.71287 14.5273 8.5822 14.9919 9.52861 15.1802C10.475 15.3684 11.456 15.2718 12.3475 14.9025C13.239 14.5333 14.001 13.9079 14.5371 13.1056C15.0732 12.3033 15.3593 11.36 15.3593 10.395C15.3593 9.10106 14.8453 7.86009 13.9303 6.94512C13.0154 6.03015 11.7744 5.51611 10.4804 5.51611ZM10.4804 13.5597C9.85416 13.5597 9.24193 13.374 8.72119 13.026C8.20045 12.6781 7.79458 12.1835 7.55491 11.6049C7.31524 11.0263 7.25252 10.3896 7.3747 9.77537C7.49689 9.16111 7.79849 8.59687 8.24134 8.15402C8.6842 7.71117 9.24841 7.40958 9.86267 7.2874C10.4769 7.16522 11.1136 7.22792 11.6922 7.46759C12.2709 7.70726 12.7654 8.11314 13.1134 8.63388C13.4613 9.15462 13.647 9.76685 13.647 10.3931C13.647 11.233 13.3134 12.0384 12.7195 12.6322C12.1257 13.2261 11.3203 13.5597 10.4804 13.5597Z" fill="white"/>
<path d="M15.5529 6.46404C16.1823 6.46404 16.6925 5.95379 16.6925 5.32437C16.6925 4.69495 16.1823 4.1847 15.5529 4.1847C14.9234 4.1847 14.4132 4.69495 14.4132 5.32437C14.4132 5.95379 14.9234 6.46404 15.5529 6.46404Z" fill="white"/>
</svg>
