<svg width="17" height="17" viewBox="0 0 17 17" fill="none" xmlns="http://www.w3.org/2000/svg">
<path d="M3.87067 5.74271V16.3821H0.329231V5.74647L3.87067 5.74271ZM4.09672 2.45934C4.10748 2.70534 4.06452 2.95074 3.97083 3.17846C3.87714 3.40617 3.73497 3.61075 3.5542 3.77796C3.15817 4.1388 2.63517 4.3278 2.09995 4.30352H2.07923C1.81875 4.31309 1.55902 4.26997 1.31561 4.17674C1.0722 4.08352 0.850109 3.94212 0.662654 3.76101C0.48623 3.59075 0.347337 3.3855 0.254884 3.15842C0.162431 2.93135 0.118458 2.68745 0.125786 2.44238C0.11847 2.19595 0.163933 1.9508 0.259127 1.72337C0.35432 1.49595 0.497043 1.29151 0.677724 1.12376C1.07161 0.767434 1.59003 0.580643 2.12067 0.603849C2.38129 0.591259 2.6418 0.630753 2.88697 0.720024C3.13214 0.809295 3.35705 0.946548 3.54855 1.12376C3.72767 1.2961 3.86891 1.50387 3.96329 1.73382C4.05767 1.96377 4.10312 2.21086 4.09672 2.45934ZM16.6086 10.2825V16.3821H13.0784V10.6951C13.1128 10.0765 12.9612 9.46176 12.6433 8.93001C12.4911 8.71555 12.2861 8.54407 12.0481 8.43218C11.8102 8.32029 11.5473 8.2718 11.2851 8.29142C10.8757 8.27997 10.4755 8.41339 10.1548 8.66816C9.85343 8.91119 9.61877 9.22688 9.47293 9.58555C9.3844 9.86619 9.34427 10.1599 9.35426 10.454V16.3821H5.82412C5.83793 13.5276 5.84484 11.2131 5.84484 9.43862C5.84484 7.66413 5.84107 6.60546 5.83354 6.26262L5.82223 5.74836H9.35614V7.29303H9.33354C9.46422 7.0813 9.61163 6.88036 9.77433 6.69211C9.959 6.48577 10.162 6.29662 10.3809 6.12699C10.6624 5.91294 10.982 5.7544 11.3228 5.65982C11.7219 5.5449 12.1357 5.48905 12.551 5.49405C13.1019 5.47157 13.6511 5.5689 14.1607 5.77932C14.6703 5.98974 15.1282 6.30824 15.5028 6.71284C16.3088 7.72047 16.7038 8.99571 16.6086 10.2825Z" fill="white"/>
</svg>
