<svg width="134" height="225" viewBox="0 0 134 225" fill="none" xmlns="http://www.w3.org/2000/svg">
<circle cx="64.5098" cy="64.5098" r="64.3995" transform="matrix(-4.37114e-08 1 1 4.37114e-08 44 95.5146)" stroke="#0DA19A" stroke-width="0.220609"/>
<circle cx="51.8311" cy="51.8311" r="51.7208" transform="matrix(-4.37114e-08 1 1 4.37114e-08 56.8555 108.37)" stroke="#B662A2" stroke-width="0.220609"/>
<circle cx="39.1571" cy="39.1571" r="39.0468" transform="matrix(-4.37114e-08 1 1 4.37114e-08 69.3984 120.912)" stroke="#F49918" stroke-width="0.220609"/>
<path d="M0.652341 67.8656L0.652343 8.28955C0.652344 4.13339 4.02158 0.76416 8.17773 0.76416L68.3809 0.764163C72.537 0.764163 75.9063 4.1334 75.9063 8.28955L75.9063 67.8656C75.9063 72.0217 72.537 75.3909 68.3809 75.3909L8.17773 75.3909C4.02157 75.3909 0.652341 72.0217 0.652341 67.8656Z" fill="#B662A2" fill-opacity="0.2"/>
</svg>
