<svg width="539" height="764" viewBox="0 0 539 764" fill="none" xmlns="http://www.w3.org/2000/svg">
<circle cx="234.301" cy="234.301" r="233.901" transform="matrix(1 0 0 -1 70.1523 763.641)" stroke="#0DA19A" stroke-width="0.801256"/>
<circle cx="188.252" cy="188.252" r="187.851" transform="matrix(1 0 0 -1 116.844 716.947)" stroke="#B662A2" stroke-width="0.801256"/>
<circle cx="142.22" cy="142.22" r="141.819" transform="matrix(1 0 0 -1 162.398 671.393)" stroke="#F49918" stroke-width="0.801256"/>
<path d="M47.3701 703.16H-169.011C-184.107 703.16 -196.344 690.923 -196.344 675.828V457.169C-196.344 442.073 -184.107 429.836 -169.011 429.836H47.3701C62.4654 429.836 74.7025 442.073 74.7025 457.169V675.828C74.7025 690.923 62.4654 703.16 47.3701 703.16Z" fill="#B662A2" fill-opacity="0.2"/>
<path d="M-40.3195 0.490158C31.383 0.490158 89.5094 58.6165 89.5094 130.319C89.5094 202.022 31.383 260.148 -40.3195 260.148C-112.022 260.148 -170.148 202.022 -170.148 130.319C-170.148 58.6165 -112.022 0.490158 -40.3195 0.490158Z" fill="#0BA19A" fill-opacity="0.2"/>
</svg>
