<svg width="651" height="676" viewBox="0 0 651 676" fill="none" xmlns="http://www.w3.org/2000/svg">
<circle cx="207.93" cy="467.888" r="206.938" transform="rotate(180 207.93 467.888)" stroke="#0DA19A" stroke-width="0.708893"/>
<circle cx="207.362" cy="467.318" r="166.197" transform="rotate(180 207.362 467.318)" stroke="#B662A2" stroke-width="0.708893"/>
<circle cx="207.784" cy="467.742" r="125.471" transform="rotate(180 207.784 467.742)" stroke="#F49918" stroke-width="0.708893"/>
<path d="M435.38 621.671H626.818C640.173 621.671 651 610.844 651 597.489V404.035C651 390.68 640.173 379.854 626.818 379.854H435.38C422.024 379.854 411.198 390.68 411.198 404.035V597.489C411.198 610.844 422.024 621.671 435.38 621.671Z" fill="#B662A2" fill-opacity="0.2"/>
<path d="M512.961 0.00112758C449.524 0.00112758 398.098 51.4271 398.098 114.864C398.098 178.302 449.524 229.728 512.961 229.728C576.398 229.728 627.824 178.302 627.824 114.864C627.824 51.4271 576.398 0.00112758 512.961 0.00112758Z" fill="#0BA19A" fill-opacity="0.2"/>
</svg>
