<svg width="70" height="70" viewBox="0 0 70 70" fill="none" xmlns="http://www.w3.org/2000/svg">
<g opacity="0.8">
<circle cx="35" cy="35" r="35" fill="#F49918"/>
<path fill-rule="evenodd" clip-rule="evenodd" d="M28.4773 24.6343C28.3457 24.7704 28.238 24.9315 28.238 24.9922C28.238 25.053 28.2126 25.1027 28.1817 25.1027C28.1464 25.1027 28.1253 25.4551 28.1253 26.048C28.1253 26.7143 28.1061 26.9996 28.0601 27.0148C28.0148 27.0299 27.9868 27.3877 27.968 28.193C27.9532 28.8291 27.9192 29.3495 27.8925 29.3495C27.8657 29.3495 27.8438 30.5817 27.8438 32.0876C27.8438 33.6165 27.8655 34.8257 27.8931 34.8257C27.9202 34.8257 27.9532 35.4338 27.9664 36.1771C27.9838 37.1592 28.0088 37.5346 28.0579 37.5508C28.1063 37.5668 28.1253 37.8088 28.1253 38.4066C28.1253 38.9251 28.1466 39.2402 28.1817 39.2402C28.2182 39.2402 28.238 39.9666 28.238 41.3077C28.238 42.6488 28.2182 43.3752 28.1817 43.3752C28.1465 43.3752 28.1253 43.709 28.1253 44.2647C28.1253 44.7538 28.1038 45.1624 28.0776 45.1727C28.0513 45.1829 28.0133 45.3718 27.9931 45.5924C27.964 45.9104 27.9738 46.011 28.0409 46.0774C28.0873 46.1235 28.1253 46.2133 28.1253 46.277C28.1253 46.3406 28.1507 46.3927 28.1817 46.3927C28.2126 46.3927 28.238 46.4304 28.238 46.4765C28.238 46.5287 28.2912 46.5604 28.3788 46.5604C28.4562 46.5604 28.5196 46.5855 28.5196 46.6162C28.5196 46.6488 28.7073 46.6721 28.9701 46.6721C29.233 46.6721 29.4207 46.6488 29.4207 46.6162C29.4207 46.5855 29.4714 46.5604 29.5333 46.5604C29.5959 46.5604 29.646 46.5231 29.646 46.4765C29.646 46.4304 29.6725 46.3927 29.7048 46.3927C29.7372 46.3927 29.8271 46.3299 29.9046 46.253C29.982 46.1762 30.0717 46.1133 30.1038 46.1133C30.136 46.1133 30.2484 46.0253 30.3537 45.9177C30.459 45.8102 30.5836 45.7222 30.6306 45.7222C30.6776 45.7222 30.7161 45.697 30.7161 45.6663C30.7161 45.6356 30.7541 45.6104 30.8005 45.6104C30.847 45.6104 30.885 45.5727 30.885 45.5266C30.885 45.4805 30.923 45.4428 30.9695 45.4428C31.016 45.4428 31.054 45.4176 31.054 45.3869C31.054 45.3562 31.0909 45.331 31.1359 45.331C31.181 45.331 31.2812 45.2682 31.3586 45.1913C31.4361 45.1145 31.5513 45.0516 31.6147 45.0516C31.6795 45.0516 31.7298 45.015 31.7298 44.9678C31.7298 44.9217 31.7678 44.884 31.8143 44.884C31.8608 44.884 31.8988 44.8588 31.8988 44.8281C31.8988 44.7974 31.938 44.7722 31.986 44.7722C32.0339 44.7722 32.1318 44.7094 32.2036 44.6325C32.2754 44.5557 32.3773 44.4928 32.4302 44.4928C32.4831 44.4928 32.5617 44.4614 32.6049 44.423C32.7504 44.2935 32.8273 44.2418 33.0393 44.1309C33.1554 44.0701 33.2505 44.001 33.2505 43.9772C33.2505 43.9535 33.3046 43.934 33.3707 43.934C33.4369 43.934 33.5497 43.8712 33.6215 43.7943C33.6933 43.7175 33.8039 43.6546 33.8673 43.6546C33.9308 43.6546 33.9826 43.6295 33.9826 43.5988C33.9826 43.568 34.0306 43.5429 34.0892 43.5429C34.1479 43.5429 34.2104 43.5052 34.2283 43.4591C34.2461 43.413 34.3122 43.3752 34.3751 43.3752C34.438 43.3752 34.4895 43.3528 34.4895 43.3254C34.4895 43.298 34.5529 43.2598 34.6303 43.2405C34.7077 43.2212 34.7711 43.1808 34.7711 43.1507C34.7711 43.1205 34.8345 43.0958 34.9119 43.0958C34.9893 43.0958 35.0527 43.0707 35.0527 43.04C35.0527 43.0092 35.0907 42.9841 35.1372 42.9841C35.1836 42.9841 35.2217 42.9594 35.2217 42.9293C35.2217 42.8992 35.285 42.8587 35.3625 42.8394C35.4399 42.8201 35.5033 42.7819 35.5033 42.7545C35.5033 42.7271 35.5393 42.7047 35.5832 42.7047C35.6772 42.7047 36.0299 42.5279 36.0571 42.4672C36.0674 42.4441 36.1244 42.4253 36.1838 42.4253C36.2432 42.4253 36.2917 42.4029 36.2917 42.3755C36.2917 42.3481 36.3551 42.3098 36.4325 42.2906C36.51 42.2713 36.5733 42.2308 36.5733 42.2007C36.5733 42.1705 36.6367 42.1459 36.7141 42.1459C36.7916 42.1459 36.8549 42.1208 36.8549 42.09C36.8549 42.0593 36.9183 42.0341 36.9957 42.0341C37.0834 42.0341 37.1365 42.0025 37.1365 41.9503C37.1365 41.8982 37.1897 41.8665 37.2773 41.8665C37.3548 41.8665 37.4181 41.8414 37.4181 41.8106C37.4181 41.7799 37.4815 41.7547 37.5589 41.7547C37.6466 41.7547 37.6997 41.7231 37.6997 41.6709C37.6997 41.6188 37.7529 41.5871 37.8405 41.5871C37.918 41.5871 37.9813 41.562 37.9813 41.5312C37.9813 41.5005 38.0447 41.4753 38.1221 41.4753C38.2098 41.4753 38.2629 41.4437 38.2629 41.3915C38.2629 41.3394 38.3161 41.3077 38.4037 41.3077C38.4812 41.3077 38.5445 41.2826 38.5445 41.2518C38.5445 41.2211 38.5805 41.1959 38.6245 41.1959C38.7185 41.1959 39.0711 41.0192 39.0983 40.9585C39.1087 40.9354 39.151 40.9166 39.1923 40.9166C39.2827 40.9166 39.6351 40.7382 39.6615 40.6791C39.6719 40.656 39.7307 40.6372 39.7923 40.6372C39.8539 40.6372 39.9396 40.6057 39.9828 40.5673C40.1832 40.3889 40.2371 40.3578 40.3444 40.3578C40.4077 40.3578 40.4594 40.3326 40.4594 40.3019C40.4594 40.2711 40.5228 40.246 40.6002 40.246C40.6879 40.246 40.741 40.2143 40.741 40.1622C40.741 40.11 40.7942 40.0784 40.8818 40.0784C40.9593 40.0784 41.0226 40.0532 41.0226 40.0225C41.0226 39.9918 41.0741 39.9666 41.137 39.9666C41.2 39.9666 41.266 39.9289 41.2838 39.8828C41.3017 39.8367 41.3769 39.799 41.451 39.799C41.5252 39.799 41.5858 39.7738 41.5858 39.7431C41.5858 39.7124 41.6373 39.6872 41.7002 39.6872C41.7632 39.6872 41.8292 39.6495 41.847 39.6034C41.8649 39.5573 41.9275 39.5196 41.9861 39.5196C42.0447 39.5196 42.0927 39.4972 42.0927 39.4697C42.0927 39.4423 42.1502 39.4056 42.2205 39.3881C42.2908 39.3706 42.4039 39.305 42.4716 39.2424C42.5394 39.1797 42.6466 39.1284 42.7099 39.1284C42.7731 39.1284 42.8249 39.1038 42.8249 39.0736C42.8249 39.0435 42.8882 39.003 42.9657 38.9837C43.0431 38.9645 43.1065 38.9262 43.1065 38.8989C43.1065 38.8714 43.1571 38.849 43.2191 38.849C43.281 38.849 43.3317 38.8239 43.3317 38.7931C43.3317 38.7624 43.3705 38.7373 43.418 38.7373C43.4654 38.7373 43.5188 38.6995 43.5366 38.6534C43.5545 38.6073 43.6171 38.5696 43.6757 38.5696C43.7343 38.5696 43.7823 38.5472 43.7823 38.5198C43.7823 38.4924 43.8457 38.4542 43.9231 38.4349C44.0005 38.4156 44.0639 38.3752 44.0639 38.345C44.0639 38.3149 44.091 38.2902 44.1242 38.2902C44.1574 38.2902 44.2199 38.2588 44.2631 38.2204C44.4495 38.0545 44.5132 38.0108 44.5684 38.0108C44.6007 38.0108 44.6271 37.9857 44.6271 37.9549C44.6271 37.9242 44.6905 37.8991 44.7679 37.8991C44.8555 37.8991 44.9087 37.8674 44.9087 37.8153C44.9087 37.7692 44.9467 37.7314 44.9932 37.7314C45.0396 37.7314 45.0777 37.7063 45.0777 37.6756C45.0777 37.6448 45.1169 37.6197 45.1648 37.6197C45.2128 37.6197 45.3107 37.5568 45.3825 37.48C45.4543 37.4031 45.5509 37.3403 45.5972 37.3403C45.6435 37.3403 45.729 37.2774 45.7871 37.2006C45.8454 37.1236 45.9501 37.0609 46.0203 37.0609C46.096 37.0609 46.1477 37.0268 46.1477 36.9771C46.1477 36.931 46.1749 36.8932 46.2081 36.8932C46.2861 36.8932 46.4293 36.7511 46.4293 36.6737C46.4293 36.6408 46.4527 36.6138 46.4813 36.6138C46.5099 36.6138 46.5625 36.5258 46.5983 36.4183C46.6495 36.2643 46.6933 36.2227 46.8038 36.2227C46.9486 36.2227 47.1052 36.1086 47.1052 36.0031C47.1052 35.9702 47.1432 35.9433 47.1897 35.9433C47.2422 35.9433 47.2741 35.8905 47.2741 35.8036C47.2741 35.7268 47.2995 35.6639 47.3305 35.6639C47.3614 35.6639 47.3868 35.5382 47.3868 35.3845C47.3868 35.2308 47.3614 35.1051 47.3305 35.1051C47.2995 35.1051 47.2741 35.0629 47.2741 35.0113C47.2741 34.9022 46.9023 34.5463 46.7883 34.5463C46.7457 34.5463 46.7109 34.5212 46.7109 34.4904C46.7109 34.4597 46.6838 34.4346 46.6506 34.4346C46.6174 34.4346 46.5549 34.4031 46.5117 34.3647C46.3113 34.1863 46.2574 34.1552 46.1501 34.1552C46.0869 34.1552 46.0351 34.1327 46.0351 34.1053C46.0351 34.0779 45.9717 34.0397 45.8943 34.0204C45.8169 34.0012 45.7535 33.9607 45.7535 33.9306C45.7535 33.9004 45.6901 33.8758 45.6127 33.8758C45.5353 33.8758 45.4719 33.8506 45.4719 33.8199C45.4719 33.7891 45.4134 33.764 45.3419 33.764C45.2703 33.764 45.1626 33.7271 45.1025 33.682C45.0424 33.6368 44.9362 33.5991 44.8665 33.5982C44.7967 33.5971 44.7397 33.5712 44.7397 33.5405C44.7397 33.5098 44.6782 33.4846 44.6029 33.4846C44.5278 33.4846 44.4282 33.4469 44.3817 33.4008C44.3352 33.3547 44.2194 33.317 44.1242 33.317C44.0291 33.317 43.9513 33.2918 43.9513 33.2611C43.9513 33.2304 43.8906 33.2052 43.8165 33.2052C43.7424 33.2052 43.6671 33.1675 43.6493 33.1214C43.6315 33.0753 43.5654 33.0376 43.5024 33.0376C43.4395 33.0376 43.3881 33.0124 43.3881 32.9817C43.3881 32.951 43.3247 32.9258 43.2473 32.9258C43.1698 32.9258 43.1065 32.9012 43.1065 32.871C43.1065 32.8409 43.0431 32.8004 42.9657 32.7811C42.8882 32.7619 42.8249 32.7236 42.8249 32.6963C42.8249 32.6688 42.7615 32.6464 42.6841 32.6464C42.6066 32.6464 42.5433 32.6218 42.5433 32.5916C42.5433 32.5615 42.4799 32.521 42.4025 32.5017C42.325 32.4825 42.2617 32.4442 42.2617 32.4169C42.2617 32.3894 42.2099 32.367 42.1467 32.367C42.0393 32.367 41.9855 32.3358 41.785 32.1575C41.7418 32.119 41.6794 32.0876 41.6461 32.0876C41.613 32.0876 41.5858 32.0625 41.5858 32.0317C41.5858 32.001 41.5225 31.9759 41.445 31.9759C41.3574 31.9759 41.3042 31.9442 41.3042 31.892C41.3042 31.8399 41.2511 31.8082 41.1634 31.8082C41.086 31.8082 41.0226 31.787 41.0226 31.7611C41.0226 31.7352 40.9339 31.6667 40.8255 31.6087C40.7171 31.5508 40.6284 31.484 40.6284 31.4603C40.6284 31.4365 40.5904 31.4171 40.5439 31.4171C40.4974 31.4171 40.4594 31.3924 40.4594 31.3623C40.4594 31.3321 40.3961 31.2917 40.3186 31.2724C40.2412 31.2531 40.1778 31.2149 40.1778 31.1875C40.1778 31.1601 40.1386 31.1377 40.0906 31.1377C40.0427 31.1377 39.9448 31.0748 39.873 30.998C39.8012 30.9211 39.6884 30.8583 39.6222 30.8583C39.5529 30.8583 39.502 30.8228 39.502 30.7745C39.502 30.7284 39.464 30.6906 39.4175 30.6906C39.371 30.6906 39.333 30.6655 39.333 30.6348C39.333 30.604 39.2938 30.5789 39.2458 30.5789C39.1979 30.5789 39.1 30.516 39.0282 30.4392C38.9564 30.3623 38.8528 30.2995 38.798 30.2995C38.7431 30.2995 38.6396 30.2366 38.5677 30.1598C38.496 30.083 38.3981 30.0201 38.3501 30.0201C38.3021 30.0201 38.2629 29.9949 38.2629 29.9642C38.2629 29.9335 38.2358 29.9083 38.2026 29.9083C38.1694 29.9083 38.1069 29.8769 38.0637 29.8385C37.8846 29.6791 37.6491 29.5252 37.5167 29.4811C37.4625 29.463 37.4181 29.4288 37.4181 29.405C37.4181 29.3812 37.3548 29.3458 37.2773 29.3266C37.1999 29.3073 37.1365 29.2668 37.1365 29.2367C37.1365 29.2065 37.0985 29.1819 37.0521 29.1819C37.0056 29.1819 36.9676 29.1568 36.9676 29.126C36.9676 29.0953 36.9284 29.0701 36.8804 29.0701C36.8325 29.0701 36.7345 29.0073 36.6628 28.9304C36.591 28.8536 36.489 28.7907 36.4361 28.7907C36.3833 28.7907 36.3047 28.7593 36.2615 28.7209C36.0751 28.555 36.0114 28.5113 35.9562 28.5113C35.9239 28.5113 35.8975 28.4889 35.8975 28.4615C35.8975 28.4341 35.8341 28.3959 35.7567 28.3766C35.6793 28.3573 35.6159 28.3169 35.6159 28.2868C35.6159 28.2566 35.5779 28.232 35.5314 28.232C35.485 28.232 35.4469 28.2068 35.4469 28.1761C35.4469 28.1453 35.399 28.1202 35.3403 28.1202C35.2817 28.1202 35.2191 28.0825 35.2013 28.0364C35.1835 27.9903 35.1174 27.9526 35.0545 27.9526C34.9915 27.9526 34.9401 27.9274 34.9401 27.8967C34.9401 27.8659 34.902 27.8408 34.8556 27.8408C34.8091 27.8408 34.7711 27.8031 34.7711 27.757C34.7711 27.7104 34.721 27.6732 34.6585 27.6732C34.5965 27.6732 34.5455 27.6543 34.5452 27.6312C34.5448 27.6082 34.4434 27.5413 34.3199 27.4826C34.1964 27.4238 34.0953 27.3547 34.0953 27.3289C34.0953 27.3031 34.0319 27.282 33.9545 27.282C33.8668 27.282 33.8137 27.2503 33.8137 27.1982C33.8137 27.1521 33.7756 27.1144 33.7292 27.1144C33.6827 27.1144 33.6447 27.0892 33.6447 27.0585C33.6447 27.0278 33.594 27.0026 33.5321 27.0026C33.4701 27.0026 33.4194 26.9802 33.4194 26.9528C33.4194 26.9254 33.3561 26.8872 33.2786 26.8679C33.2012 26.8486 33.1378 26.8081 33.1378 26.778C33.1378 26.7479 33.0745 26.7232 32.997 26.7232C32.9196 26.7232 32.8562 26.7008 32.8562 26.6734C32.8562 26.646 32.7929 26.6078 32.7154 26.5885C32.638 26.5692 32.5746 26.5288 32.5746 26.4986C32.5746 26.4685 32.5113 26.4438 32.4338 26.4438C32.3564 26.4438 32.293 26.4214 32.293 26.394C32.293 26.3666 32.2297 26.3284 32.1522 26.3091C32.0748 26.2898 32.0114 26.2494 32.0114 26.2192C32.0114 26.1891 31.9481 26.1644 31.8706 26.1644C31.7932 26.1644 31.7298 26.142 31.7298 26.1146C31.7298 26.0872 31.6665 26.049 31.589 26.0297C31.5116 26.0104 31.4482 25.97 31.4482 25.9398C31.4482 25.9097 31.3975 25.885 31.3356 25.885C31.2736 25.885 31.2227 25.8661 31.2223 25.8431C31.2219 25.8201 31.1206 25.7531 30.997 25.6944C30.8735 25.6357 30.7724 25.5666 30.7724 25.5407C30.7724 25.515 30.709 25.4939 30.6316 25.4939C30.544 25.4939 30.4908 25.4622 30.4908 25.41C30.4908 25.3639 30.4528 25.3262 30.4063 25.3262C30.3598 25.3262 30.3218 25.3011 30.3218 25.2703C30.3218 25.2396 30.2838 25.2145 30.2373 25.2145C30.1043 25.2145 29.9276 25.005 29.9276 24.8473C29.9276 24.6999 29.8138 24.5439 29.7063 24.5439C29.6731 24.5439 29.646 24.5062 29.646 24.4601C29.646 24.3919 29.5592 24.3773 29.1813 24.3815L28.7167 24.3868L28.4773 24.6343ZM29.7941 27.1283C29.7755 27.1975 29.7598 27.3484 29.7594 27.4636C29.759 27.5789 29.7333 27.6732 29.7023 27.6732C29.6663 27.6732 29.646 28.1761 29.646 29.0701C29.646 29.9642 29.6257 30.4671 29.5897 30.4671C29.5533 30.4671 29.5333 31.0725 29.5333 32.1714C29.5333 33.2704 29.5533 33.8758 29.5897 33.8758C29.6257 33.8758 29.646 34.3678 29.646 35.2402C29.646 36.1169 29.6665 36.6113 29.7034 36.6235C29.7366 36.6345 29.7758 36.9889 29.7966 37.4663C29.8164 37.9195 29.8539 38.2902 29.8801 38.2902C29.9062 38.2902 29.9276 38.6926 29.9276 39.1843C29.9276 39.7431 29.9487 40.0784 29.9839 40.0784C30.0195 40.0784 30.0402 40.4789 30.0402 41.168C30.0402 41.8572 30.0195 42.2577 29.9839 42.2577C29.9487 42.2577 29.9276 42.5914 29.9276 43.1471C29.9276 43.808 29.9095 44.0429 29.8572 44.0614C29.8162 44.0759 29.8077 44.1071 29.8367 44.1359C29.8658 44.1648 29.8972 44.1563 29.9118 44.1156C29.9257 44.0772 29.9729 44.0458 30.0167 44.0458C30.0607 44.0458 30.0965 44.0206 30.0965 43.9899C30.0965 43.9592 30.1357 43.934 30.1837 43.934C30.2317 43.934 30.3296 43.8712 30.4014 43.7943C30.4732 43.7175 30.586 43.6546 30.6521 43.6546C30.7215 43.6546 30.7724 43.6192 30.7724 43.5708C30.7724 43.5247 30.8104 43.487 30.8569 43.487C30.9033 43.487 30.9413 43.4619 30.9413 43.4311C30.9413 43.4004 30.992 43.3752 31.054 43.3752C31.1159 43.3752 31.1666 43.3506 31.1666 43.3204C31.1666 43.2903 31.23 43.2498 31.3074 43.2306C31.3849 43.2113 31.4482 43.1731 31.4482 43.1457C31.4482 43.1183 31.4754 43.0958 31.5085 43.0958C31.5418 43.0958 31.6042 43.0644 31.6474 43.026C31.8444 42.8507 31.9002 42.8165 31.9885 42.8165C32.0405 42.8165 32.1417 42.7536 32.2135 42.6768C32.2853 42.5999 32.3959 42.5371 32.4593 42.5371C32.5228 42.5371 32.5746 42.5119 32.5746 42.4812C32.5746 42.4504 32.6066 42.4253 32.6456 42.4253C32.6846 42.4253 32.7849 42.3624 32.8684 42.2856C32.9519 42.2088 33.072 42.1459 33.1353 42.1459C33.1987 42.1459 33.2505 42.1213 33.2505 42.0911C33.2505 42.061 33.3138 42.0205 33.3913 42.0012C33.4687 41.9819 33.5321 41.9437 33.5321 41.9163C33.5321 41.8889 33.5954 41.8665 33.6729 41.8665C33.7605 41.8665 33.8137 41.8348 33.8137 41.7827C33.8137 41.7305 33.8668 41.6989 33.9545 41.6989C34.0319 41.6989 34.0953 41.6737 34.0953 41.643C34.0953 41.6122 34.146 41.5871 34.2079 41.5871C34.2699 41.5871 34.3205 41.5631 34.3205 41.5339C34.3205 41.5046 34.4156 41.4367 34.5317 41.3831C34.6479 41.3294 34.7556 41.2699 34.7711 41.2506C34.7866 41.2314 34.9196 41.1672 35.0666 41.108C35.2136 41.0488 35.334 40.9815 35.3341 40.9585C35.3342 40.9354 35.3858 40.9166 35.4487 40.9166C35.5117 40.9166 35.5777 40.8788 35.5955 40.8327C35.6134 40.7866 35.6886 40.7489 35.7627 40.7489C35.8368 40.7489 35.8975 40.7238 35.8975 40.693C35.8975 40.6623 35.9609 40.6372 36.0383 40.6372C36.1157 40.6372 36.1791 40.6125 36.1791 40.5823C36.1791 40.5522 36.2425 40.5118 36.3199 40.4925C36.3973 40.4732 36.4607 40.435 36.4607 40.4076C36.4607 40.3802 36.5241 40.3578 36.6015 40.3578C36.6789 40.3578 36.7423 40.3331 36.7423 40.3029C36.7423 40.2728 36.8057 40.2324 36.8831 40.2131C36.9605 40.1938 37.0239 40.1556 37.0239 40.1282C37.0239 40.1008 37.0873 40.0784 37.1647 40.0784C37.2421 40.0784 37.3057 40.0595 37.3058 40.0365C37.3063 39.9802 37.632 39.799 37.7325 39.799C37.7764 39.799 37.8124 39.7766 37.8124 39.7491C37.8124 39.7217 37.8757 39.6835 37.9532 39.6642C38.0306 39.645 38.094 39.6045 38.094 39.5744C38.094 39.5442 38.1573 39.5196 38.2348 39.5196C38.3122 39.5196 38.3756 39.4972 38.3756 39.4697C38.3756 39.4423 38.4389 39.4041 38.5164 39.3848C38.5938 39.3656 38.6572 39.3251 38.6572 39.295C38.6572 39.2648 38.7205 39.2402 38.798 39.2402C38.8754 39.2402 38.9388 39.215 38.9388 39.1843C38.9388 39.1536 39.0021 39.1284 39.0796 39.1284C39.1672 39.1284 39.2204 39.0967 39.2204 39.0446C39.2204 38.9925 39.2735 38.9608 39.3612 38.9608C39.4386 38.9608 39.502 38.9356 39.502 38.9049C39.502 38.8742 39.5653 38.849 39.6428 38.849C39.7304 38.849 39.7836 38.8173 39.7836 38.7652C39.7836 38.7131 39.8367 38.6814 39.9244 38.6814C40.0018 38.6814 40.0652 38.6562 40.0652 38.6255C40.0652 38.5948 40.1132 38.5696 40.1718 38.5696C40.2304 38.5696 40.293 38.5319 40.3108 38.4858C40.3286 38.4397 40.3947 38.402 40.4577 38.402C40.5206 38.402 40.5721 38.3768 40.5721 38.3461C40.5721 38.3154 40.6239 38.2902 40.6874 38.2902C40.7508 38.2902 40.8614 38.2274 40.9332 38.1505C41.005 38.0737 41.1178 38.0108 41.184 38.0108C41.2501 38.0108 41.3042 37.9862 41.3042 37.956C41.3042 37.9259 41.3676 37.8854 41.445 37.8662C41.5225 37.8469 41.5858 37.8087 41.5858 37.7813C41.5858 37.7538 41.6383 37.7314 41.7025 37.7314C41.7667 37.7314 41.8545 37.7 41.8977 37.6616C42.084 37.4957 42.1477 37.452 42.203 37.452C42.2352 37.452 42.2617 37.4269 42.2617 37.3962C42.2617 37.3654 42.325 37.3403 42.4025 37.3403C42.4901 37.3403 42.5433 37.3086 42.5433 37.2565C42.5433 37.2043 42.5964 37.1726 42.6841 37.1726C42.7615 37.1726 42.8249 37.1515 42.8249 37.1255C42.8249 37.0997 42.9136 37.0311 43.022 36.9731C43.1304 36.9152 43.2191 36.8511 43.2191 36.8307C43.2191 36.8103 43.2825 36.7778 43.3599 36.7585C43.4373 36.7392 43.5007 36.6988 43.5007 36.6687C43.5007 36.6385 43.5387 36.6138 43.5852 36.6138C43.6316 36.6138 43.6697 36.5887 43.6697 36.558C43.6697 36.5272 43.7089 36.5021 43.7568 36.5021C43.8048 36.5021 43.9027 36.4392 43.9745 36.3624C44.0463 36.2856 44.1591 36.2227 44.2253 36.2227C44.2946 36.2227 44.3455 36.1872 44.3455 36.1389C44.3455 36.0928 44.3835 36.0551 44.43 36.0551C44.4764 36.0551 44.5145 36.0299 44.5145 35.9992C44.5145 35.9684 44.5537 35.9433 44.6016 35.9433C44.6496 35.9433 44.7475 35.8804 44.8193 35.8036C44.8911 35.7268 44.9785 35.6639 45.0137 35.6639C45.0489 35.6639 45.0777 35.6405 45.0777 35.612C45.0777 35.5323 44.9104 35.3845 44.8202 35.3845C44.7759 35.3845 44.7397 35.3594 44.7397 35.3286C44.7397 35.2979 44.651 35.2727 44.5426 35.2727C44.4342 35.2727 44.3455 35.2481 44.3455 35.2179C44.3455 35.1878 44.2821 35.1474 44.2047 35.1281C44.1273 35.1088 44.0639 35.0706 44.0639 35.0432C44.0639 35.0158 43.9752 34.9933 43.8668 34.9933C43.7584 34.9933 43.6697 34.9702 43.6697 34.9419C43.6697 34.9136 43.5936 34.8739 43.5007 34.8536C43.4078 34.8334 43.3317 34.7937 43.3317 34.7654C43.3317 34.7371 43.2557 34.714 43.1628 34.714C43.0698 34.714 42.9938 34.6888 42.9938 34.6581C42.9938 34.6273 42.9297 34.6022 42.8513 34.6022C42.7728 34.6022 42.6941 34.5645 42.6763 34.5184C42.6584 34.4723 42.5832 34.4346 42.5091 34.4346C42.435 34.4346 42.3743 34.4094 42.3743 34.3787C42.3743 34.3479 42.3127 34.3228 42.2375 34.3228C42.1623 34.3228 42.0627 34.2851 42.0163 34.239C41.9698 34.1929 41.892 34.1552 41.8433 34.1552C41.7946 34.1552 41.7545 34.1363 41.7542 34.1132C41.7538 34.0902 41.6524 34.0233 41.5289 33.9646C41.4053 33.9058 41.3042 33.8367 41.3042 33.8109C41.3042 33.7851 41.2409 33.764 41.1634 33.764C41.0758 33.764 41.0226 33.7323 41.0226 33.6802C41.0226 33.628 40.9695 33.5964 40.8818 33.5964C40.8044 33.5964 40.741 33.5712 40.741 33.5405C40.741 33.5098 40.7139 33.4846 40.6807 33.4846C40.6475 33.4846 40.585 33.4531 40.5418 33.4148C40.3459 33.2404 40.2894 33.2052 40.2056 33.2052C40.1564 33.2052 40.0574 33.1423 39.9857 33.0655C39.9138 32.9887 39.8103 32.9258 39.7554 32.9258C39.7006 32.9258 39.597 32.8629 39.5252 32.7861C39.4534 32.7093 39.3555 32.6464 39.3076 32.6464C39.2596 32.6464 39.2204 32.624 39.2204 32.5966C39.2204 32.5692 39.157 32.531 39.0796 32.5117C39.0021 32.4924 38.9388 32.452 38.9388 32.4218C38.9388 32.3917 38.9116 32.367 38.8785 32.367C38.8452 32.367 38.7828 32.3356 38.7396 32.2972C38.5532 32.1313 38.4895 32.0876 38.4343 32.0876C38.402 32.0876 38.3756 32.0625 38.3756 32.0317C38.3756 32.001 38.3241 31.9759 38.2612 31.9759C38.1982 31.9759 38.1322 31.9381 38.1144 31.892C38.0965 31.8459 38.0466 31.8082 38.0035 31.8082C37.9603 31.8082 37.925 31.7831 37.925 31.7523C37.925 31.7216 37.8836 31.6965 37.8329 31.6965C37.7823 31.6965 37.6821 31.6336 37.6103 31.5568C37.5386 31.4799 37.4388 31.4171 37.3886 31.4171C37.3385 31.4171 37.2621 31.3857 37.2189 31.3472C37.0326 31.1814 36.9689 31.1377 36.9136 31.1377C36.8814 31.1377 36.8549 31.1153 36.8549 31.0878C36.8549 31.0604 36.7916 31.0222 36.7141 31.003C36.6367 30.9837 36.5733 30.9432 36.5733 30.9131C36.5733 30.8829 36.5462 30.8583 36.513 30.8583C36.4798 30.8583 36.4173 30.8269 36.3741 30.7884C36.1878 30.6226 36.1241 30.5789 36.0688 30.5789C36.0366 30.5789 36.0101 30.5537 36.0101 30.523C36.0101 30.4923 35.9587 30.4671 35.8958 30.4671C35.8328 30.4671 35.7667 30.4294 35.7489 30.3833C35.7311 30.3372 35.6685 30.2995 35.6099 30.2995C35.5512 30.2995 35.5033 30.2743 35.5033 30.2436C35.5033 30.2129 35.4652 30.1877 35.4188 30.1877C35.3723 30.1877 35.3343 30.1631 35.3343 30.1329C35.3343 30.1028 35.2709 30.0623 35.1935 30.0431C35.1161 30.0238 35.0527 29.9856 35.0527 29.9582C35.0527 29.9307 35.0256 29.9083 34.9924 29.9083C34.9592 29.9083 34.8967 29.8769 34.8535 29.8385C34.6671 29.6726 34.6034 29.6289 34.5482 29.6289C34.5159 29.6289 34.4895 29.6065 34.4895 29.5791C34.4895 29.5517 34.4261 29.5135 34.3487 29.4942C34.2713 29.4749 34.2079 29.4345 34.2079 29.4044C34.2079 29.3742 34.1572 29.3495 34.0953 29.3495C34.0333 29.3495 33.9826 29.3244 33.9826 29.2937C33.9826 29.2629 33.9446 29.2378 33.8981 29.2378C33.8517 29.2378 33.8137 29.2001 33.8137 29.154C33.8137 29.1018 33.7605 29.0701 33.6729 29.0701C33.5954 29.0701 33.5321 29.045 33.5321 29.0143C33.5321 28.9835 33.494 28.9584 33.4476 28.9584C33.4011 28.9584 33.3631 28.9349 33.3631 28.9062C33.3631 28.8776 33.3072 28.8366 33.239 28.8151C33.1708 28.7936 33.0829 28.7479 33.0438 28.7135C32.8596 28.5516 32.8004 28.5113 32.746 28.5113C32.7137 28.5113 32.6873 28.4862 32.6873 28.4555C32.6873 28.4247 32.6348 28.3996 32.5706 28.3996C32.5064 28.3996 32.4186 28.3682 32.3754 28.3297C32.2299 28.2002 32.153 28.1486 31.941 28.0377C31.8249 27.9769 31.7298 27.9077 31.7298 27.884C31.7298 27.8602 31.6665 27.8408 31.589 27.8408C31.5116 27.8408 31.4482 27.8184 31.4482 27.791C31.4482 27.7636 31.3849 27.7254 31.3074 27.7061C31.23 27.6868 31.1666 27.6463 31.1666 27.6162C31.1666 27.586 31.1033 27.5614 31.0258 27.5614C30.9484 27.5614 30.885 27.5363 30.885 27.5055C30.885 27.4748 30.8336 27.4496 30.7706 27.4496C30.7077 27.4496 30.6416 27.4119 30.6238 27.3658C30.606 27.3197 30.5307 27.282 30.4566 27.282C30.3825 27.282 30.3218 27.2574 30.3218 27.2272C30.3218 27.1971 30.2585 27.1566 30.181 27.1373C30.1036 27.1181 30.0402 27.0798 30.0402 27.0525C30.0402 26.9426 29.8265 27.0086 29.7941 27.1283Z" fill="white"/>
<path d="M34.3487 28.8187L29.1391 26.3879L28.4633 28.2319L29.1391 45.9736L33.3068 43.2914L42.8249 37.9549L46.2041 35.5801L34.3487 28.8187Z" fill="white"/>
</g>
</svg>
