<svg width="620" height="650" viewBox="0 0 620 650" fill="none" xmlns="http://www.w3.org/2000/svg">
<circle cx="334.932" cy="284.298" r="283.799" stroke="#0DA19A"/>
<circle cx="335.712" cy="285.08" r="227.923" stroke="#B662A2"/>
<circle cx="335.13" cy="284.499" r="172.068" stroke="#F49918"/>
<path d="M115.376 650H-59.8644C-72.0896 650 -82 640.074 -82 627.83V450.473C-82 438.23 -72.0896 428.304 -59.8644 428.304H115.376C127.601 428.304 137.511 438.23 137.511 450.473V627.83C137.511 640.074 127.601 650 115.376 650Z" fill="#B662A2" fill-opacity="0.2"/>
<path d="M-66.4193 59.524C4.04152 59.524 61.1613 116.732 61.1613 187.301C61.1613 257.87 4.04152 315.078 -66.4193 315.078C-136.88 315.078 -194 257.87 -194 187.301C-194 116.732 -136.88 59.524 -66.4193 59.524Z" fill="#0BA19A" fill-opacity="0.2"/>
</svg>
