<svg width="86" height="325" viewBox="0 0 86 325" fill="none" xmlns="http://www.w3.org/2000/svg">
<path d="M-69.1878 325L18.4322 325C24.5448 325 29.5 320.037 29.5 313.915L29.5 225.237C29.5 219.115 24.5448 214.152 18.4322 214.152L-69.1878 214.152C-75.3004 214.152 -80.2556 219.115 -80.2556 225.237L-80.2556 313.915C-80.2556 320.037 -75.3004 325 -69.1878 325Z" fill="#B662A2" fill-opacity="0.2"/>
<path d="M21.7097 29.7623C-13.5208 29.7623 -42.0807 58.3661 -42.0807 93.6507C-42.0807 128.935 -13.5208 157.539 21.7097 157.539C56.9401 157.539 85.5 128.935 85.5 93.6507C85.5 58.3661 56.9401 29.7623 21.7097 29.7623Z" fill="#0BA19A" fill-opacity="0.2"/>
</svg>
