<svg width="639" height="650" viewBox="0 0 639 650" fill="none" xmlns="http://www.w3.org/2000/svg">
<circle cx="110.068" cy="365.702" r="283.799" transform="rotate(-180 110.068 365.702)" stroke="#0DA19A"/>
<circle cx="109.296" cy="364.92" r="227.923" transform="rotate(-180 109.296 364.92)" stroke="#B662A2"/>
<circle cx="109.87" cy="365.501" r="172.068" transform="rotate(-180 109.87 365.501)" stroke="#F49918"/>
<path d="M329.624 -1.72551e-05L504.864 -1.93515e-06C517.09 -8.66398e-07 527 9.92567 527 22.1696L527 199.527C527 211.77 517.09 221.696 504.864 221.696L329.624 221.696C317.399 221.696 307.489 211.77 307.489 199.527L307.489 22.1696C307.489 9.92566 317.399 -1.83239e-05 329.624 -1.72551e-05Z" fill="#B662A2" fill-opacity="0.2"/>
<path d="M511.419 590.476C440.958 590.476 383.839 533.268 383.839 462.699C383.839 392.13 440.958 334.922 511.419 334.922C581.88 334.922 639 392.13 639 462.699C639 533.268 581.88 590.476 511.419 590.476Z" fill="#0BA19A" fill-opacity="0.2"/>
</svg>
