<svg width="640" height="650" viewBox="0 0 640 650" fill="none" xmlns="http://www.w3.org/2000/svg">
<circle cx="284.299" cy="284.299" r="283.799" transform="matrix(1 0 0 -1 70.6328 650)" stroke="#0DA19A"/>
<circle cx="228.423" cy="228.423" r="227.923" transform="matrix(1 0 0 -1 127.289 593.343)" stroke="#B662A2"/>
<circle cx="172.568" cy="172.568" r="172.068" transform="matrix(1 0 0 -1 182.562 538.069)" stroke="#F49918"/>
<path d="M135.376 0L-39.8644 0C-52.0896 0 -62 9.92567 -62 22.1696V199.527C-62 211.77 -52.0896 221.696 -39.8644 221.696H135.376C147.601 221.696 157.511 211.77 157.511 199.527V22.1696C157.511 9.92567 147.601 0 135.376 0Z" fill="#B662A2" fill-opacity="0.2"/>
<path d="M-46.4193 590.476C24.0415 590.476 81.1613 533.268 81.1613 462.699C81.1613 392.13 24.0415 334.922 -46.4193 334.922C-116.88 334.922 -174 392.13 -174 462.699C-174 533.268 -116.88 590.476 -46.4193 590.476Z" fill="#0BA19A" fill-opacity="0.2"/>
</svg>
