<svg width="741" height="764" viewBox="0 0 741 764" fill="none" xmlns="http://www.w3.org/2000/svg">
<circle cx="234.301" cy="234.301" r="233.901" transform="matrix(-1 0 0 1 468.848 0.490234)" stroke="#0DA19A" stroke-width="0.801256"/>
<circle cx="188.252" cy="188.252" r="187.851" transform="matrix(-1 0 0 1 422.156 47.1836)" stroke="#B662A2" stroke-width="0.801256"/>
<circle cx="142.22" cy="142.22" r="141.819" transform="matrix(-1 0 0 1 376.602 92.7373)" stroke="#F49918" stroke-width="0.801256"/>
<path d="M496.63 60.9707H713.011C728.107 60.9707 740.344 73.2078 740.344 88.3031V306.962C740.344 322.058 728.107 334.295 713.011 334.295H496.63C481.535 334.295 469.297 322.058 469.297 306.962V88.3031C469.297 73.2078 481.535 60.9707 496.63 60.9707Z" fill="#B662A2" fill-opacity="0.2"/>
<path d="M579.32 763.641C507.617 763.641 449.491 705.515 449.491 633.812C449.491 562.11 507.617 503.983 579.32 503.983C651.022 503.983 709.148 562.11 709.148 633.812C709.148 705.515 651.022 763.641 579.32 763.641Z" fill="#0BA19A" fill-opacity="0.2"/>
</svg>
