<svg width="221" height="408" viewBox="0 0 221 408" fill="none" xmlns="http://www.w3.org/2000/svg">
<circle cx="129.02" cy="129.02" r="128.799" transform="matrix(-4.37114e-08 1 1 4.37114e-08 -200 149.748)" stroke="#0DA19A" stroke-width="0.441217"/>
<circle cx="103.662" cy="103.662" r="103.442" transform="matrix(-4.37114e-08 1 1 4.37114e-08 -174.289 175.459)" stroke="#B662A2" stroke-width="0.441217"/>
<circle cx="78.3142" cy="78.3142" r="78.0936" transform="matrix(-4.37114e-08 1 1 4.37114e-08 -149.203 200.543)" stroke="#F49918" stroke-width="0.441217"/>
<path d="M220.232 88.915C220.232 128.399 188.225 160.406 148.741 160.406C109.258 160.406 77.25 128.399 77.25 88.915C77.25 49.4315 109.258 17.4238 148.741 17.4238C188.225 17.4238 220.232 49.4315 220.232 88.915Z" fill="#0BA19A" fill-opacity="0.2"/>
</svg>
