<svg width="217" height="449" viewBox="0 0 217 449" fill="none" xmlns="http://www.w3.org/2000/svg">
<circle cx="129.02" cy="129.02" r="128.799" transform="matrix(-4.37114e-08 1 1 4.37114e-08 87 190.186)" stroke="#0DA19A" stroke-width="0.441217"/>
<circle cx="103.662" cy="103.662" r="103.442" transform="matrix(-4.37114e-08 1 1 4.37114e-08 112.711 215.896)" stroke="#B662A2" stroke-width="0.441217"/>
<circle cx="78.3142" cy="78.3142" r="78.0936" transform="matrix(-4.37114e-08 1 1 4.37114e-08 137.797 240.98)" stroke="#F49918" stroke-width="0.441217"/>
<path d="M0.304682 134.887L0.304687 15.7353C0.304687 7.42303 7.04315 0.684571 15.3555 0.684571L135.762 0.684576C144.074 0.684577 150.813 7.42304 150.813 15.7354L150.813 134.887C150.813 143.2 144.074 149.938 135.762 149.938L15.3555 149.938C7.04315 149.938 0.304681 143.2 0.304682 134.887Z" fill="#B662A2" fill-opacity="0.2"/>
</svg>
