<svg width="299" height="460" viewBox="0 0 299 460" fill="none" xmlns="http://www.w3.org/2000/svg">
<circle cx="145.284" cy="145.284" r="145.036" transform="matrix(-4.37114e-08 1 1 4.37114e-08 -174.977 169.248)" stroke="#0DA19A" stroke-width="0.496838"/>
<circle cx="116.73" cy="116.73" r="116.482" transform="matrix(-4.37114e-08 1 1 4.37114e-08 -146.023 198.199)" stroke="#B662A2" stroke-width="0.496838"/>
<circle cx="88.1867" cy="88.1867" r="87.9383" transform="matrix(-4.37114e-08 1 1 4.37114e-08 -117.773 226.445)" stroke="#F49918" stroke-width="0.496838"/>
<path d="M-137.473 152.019L-137.473 17.8466C-137.473 8.48637 -129.885 0.898438 -120.525 0.898438L15.0604 0.898444C24.4206 0.898445 32.0085 8.48637 32.0085 17.8466L32.0085 152.019C32.0085 161.379 24.4206 168.967 15.0604 168.967L-120.525 168.967C-129.885 168.967 -137.473 161.379 -137.473 152.019Z" fill="#B662A2" fill-opacity="0.2"/>
<path d="M298.234 100.746C298.234 145.207 262.191 181.249 217.73 181.249C173.269 181.249 137.227 145.207 137.227 100.746C137.227 56.2849 173.269 20.2422 217.73 20.2422C262.191 20.2422 298.234 56.2849 298.234 100.746Z" fill="#0BA19A" fill-opacity="0.2"/>
</svg>
