<svg width="254" height="546" viewBox="0 0 254 546" fill="none" xmlns="http://www.w3.org/2000/svg">
<circle cx="157.012" cy="157.012" r="156.744" transform="matrix(-4.37114e-08 1 1 4.37114e-08 105.875 231.23)" stroke="#0DA19A" stroke-width="0.536945"/>
<circle cx="126.153" cy="126.153" r="125.885" transform="matrix(-4.37114e-08 1 1 4.37114e-08 137.164 262.52)" stroke="#B662A2" stroke-width="0.536945"/>
<circle cx="95.3055" cy="95.3055" r="95.037" transform="matrix(-4.37114e-08 1 1 4.37114e-08 167.695 293.047)" stroke="#F49918" stroke-width="0.536945"/>
<path d="M0.371087 163.933L0.371093 18.9295C0.371093 8.81374 8.57155 0.613282 18.6873 0.613282L165.217 0.613288C175.333 0.613289 183.533 8.81375 183.533 18.9295L183.533 163.933C183.533 174.049 175.333 182.249 165.217 182.249L18.6873 182.249C8.57154 182.249 0.371086 174.049 0.371087 163.933Z" fill="#B662A2" fill-opacity="0.2"/>
</svg>
