<svg width="21" height="17" viewBox="0 0 21 17" fill="none" xmlns="http://www.w3.org/2000/svg">
<path d="M20.0188 2.73656C19.4872 3.51772 18.8244 4.20094 18.0597 4.75593C18.0672 4.86896 18.071 5.0385 18.071 5.26455C18.0689 6.32726 17.9141 7.38416 17.6114 8.40287C17.2959 9.47069 16.825 10.4862 16.2136 11.4169C15.596 12.3644 14.8455 13.2182 13.9852 13.9524C13.0609 14.725 12.0039 15.3231 10.8657 15.7175C9.61175 16.1632 8.28955 16.3863 6.95879 16.3768C4.83094 16.3938 2.74509 15.7845 0.960938 14.6249C1.27372 14.6589 1.58818 14.6753 1.90281 14.6739C3.66297 14.6921 5.37555 14.1026 6.75157 13.0049C5.92937 12.9971 5.13174 12.7235 4.47789 12.225C3.8253 11.7445 3.3424 11.069 3.09899 10.296C3.34328 10.3345 3.59011 10.3547 3.83742 10.3563C4.18458 10.3561 4.53027 10.3111 4.86594 10.2226C3.98466 10.0486 3.19217 9.57135 2.62617 8.8738C2.03993 8.17986 1.72417 7.29747 1.73704 6.38914V6.34016C2.2773 6.64411 2.8826 6.81401 3.50211 6.83559C2.97175 6.48279 2.53584 6.00549 2.23247 5.44538C1.91868 4.87489 1.75653 4.23343 1.76153 3.58236C1.75703 2.88959 1.94063 2.20859 2.29275 1.61196C3.2649 2.8108 4.47697 3.79316 5.85114 4.49598C7.24449 5.21625 8.77706 5.62686 10.3439 5.69969C10.2809 5.40557 10.2487 5.1057 10.2478 4.80491C10.2397 4.29063 10.3369 3.78013 10.5336 3.30487C10.7302 2.8296 11.0221 2.39963 11.3912 2.04146C11.7494 1.67232 12.1794 1.38044 12.6546 1.18379C13.1299 0.987138 13.6404 0.889885 14.1547 0.898023C14.6908 0.888764 15.2227 0.994043 15.7148 1.20682C16.207 1.4196 16.6481 1.73498 17.0086 2.13188C17.8834 1.96445 18.7223 1.64571 19.4876 1.19C19.2059 2.09908 18.5926 2.869 17.7696 3.34689C18.5457 3.25748 19.3039 3.05173 20.0188 2.73656Z" fill="white"/>
</svg>
